<svg fill="none" height="1024" viewBox="0 0 1024 1024" width="1024" xmlns="http://www.w3.org/2000/svg"><path d="m0 0h1024v1024h-1024z" fill="#3d00bf"/><path d="m341.692 193.737c-10.887 3.417-23.054 10.89-28.818 17.722-3.416 3.844-8.325 11.958-11.1 18.15-5.124 11.103-5.124 11.103-4.483 120.64.854 106.334.854 109.963 5.55 125.551 6.831 22.206 21.56 51.672 34.155 68.327 23.268 30.747 58.063 57.223 93.285 70.675 9.392 3.63 26.256 8.541 37.357 10.89 16.65 3.416 26.043 4.057 52.299 3.203 38.424-1.068 56.355-5.338 87.521-20.498 59.344-29.039 99.263-78.363 115.913-142.846 3.202-12.598 3.629-26.904 3.629-122.135 0-106.974 0-107.829-4.696-116.583-7.258-13.665-15.156-21.993-27.111-28.185-9.392-4.911-13.448-5.765-29.031-5.765-14.516 0-19.853 1.068-26.683 4.698-11.741 6.192-23.482 18.789-29.245 31.601-4.91 10.462-4.91 11.957-5.978 112.099-1.067 101.423-1.067 101.423-7.684 115.515-3.843 7.9-10.247 18.149-14.516 22.847-16.651 18.363-43.547 30.32-68.523 30.32-16.864 0-38.211-6.406-51.659-15.801-13.662-9.394-26.683-25.836-32.874-41.209-4.91-12.171-5.123-13.666-6.191-114.875-1.067-102.064-1.067-102.491-5.977-112.526-6.617-13.452-21.773-26.477-35.222-30.534-11.313-3.416-30.952-4.057-39.918-1.281zm277.934 482.346c-6.19 2.349-15.583 7.046-20.706 10.89-13.876 10.035-34.155 19.003-52.086 22.847-23.055 5.124-55.288 3.202-78.983-4.698-9.606-3.203-23.695-9.608-30.739-14.306-16.651-10.676-26.897-14.306-40.772-14.306-23.482 0-43.548 12.384-53.367 32.669-7.472 15.16-8.966 27.971-4.91 42.277 5.123 17.509 14.302 27.972 34.582 40.356 22.2 13.452 39.491 21.352 62.546 28.612 29.458 9.181 55.074 12.598 89.015 11.317 22.628-.854 35.222-2.349 51.232-6.62 11.741-2.989 26.684-7.686 33.088-10.249 30.739-11.957 61.478-30.747 73.219-44.412 9.606-11.317 15.156-29.039 13.662-42.918-1.494-12.598-7.258-26.263-15.156-35.445-3.202-3.843-10.887-9.395-17.078-12.384-15.156-7.473-29.245-8.541-43.547-3.63z" fill="#fff"/></svg>