<svg height="120" viewBox="0 0 265.334 120" width="265.334" xmlns="http://www.w3.org/2000/svg"><path d="m143.554.478c-2.316.958-3.582 2.1-4.663 4.324-1.019 2.069-1.019 2.069-1.081 27.547-.062 16.491.031 26.682.247 28.875.433 4.231 1.452 7.844 3.212 11.241 1.884 3.644 4.138 6.516 6.918 8.894 2.841 2.409 5.682 4.17 8.801 5.374 3.768 1.451 6.331 1.884 11.303 1.915 3.583 0 5.034-.124 7.227-.68 3.304-.803 7.813-2.872 10.624-4.879 5.435-3.86 9.573-9.852 11.55-16.646.648-2.162.71-3.088.679-8.307 0-5.034-.092-6.208-.679-8.277-.803-2.964-2.656-6.917-4.416-9.511-1.699-2.533-5.127-5.961-7.659-7.659-2.625-1.792-6.578-3.614-9.512-4.417-3.058-.802-9.389-1.08-12.693-.555-1.297.216-3.335.71-4.54 1.142-1.173.402-2.409.834-2.687.927-.525.154-.556-.525-.556-11.118 0-10.531-.03-11.427-.617-12.94-.803-2.161-2.069-3.644-4.046-4.694-1.266-.71-2.131-.926-3.798-1.019-1.637-.062-2.564.062-3.614.463zm29.185 45.12c1.019.339 2.594 1.235 3.52 1.945 1.884 1.482 3.83 4.416 4.54 6.856.648 2.162.587 5.59-.154 7.968-.68 2.192-2.502 4.972-4.077 6.176-2.687 2.038-5.899 3.058-9.172 2.872-4.015-.216-7.536-2.223-9.821-5.651-.741-1.081-1.482-2.533-1.698-3.243-.217-.71-.402-2.748-.402-4.57 0-3.12.031-3.336 1.143-5.559 2.501-5.065 7.01-7.844 12.291-7.567 1.112.062 2.841.402 3.83.773zm-166.273-17.912c-1.575.494-3.336 1.575-4.169 2.563-.495.556-1.205 1.729-1.606 2.625-.742 1.606-.742 1.606-.649 17.449.123 15.379.123 15.904.803 18.158.988 3.212 3.119 7.474 4.941 9.883 3.366 4.447 8.4 8.276 13.496 10.222 1.359.525 3.799 1.235 5.405 1.575 2.408.494 3.767.587 7.566.463 5.559-.154 8.153-.772 12.662-2.965 8.585-4.2 14.36-11.333 16.769-20.66.463-1.822.525-3.891.525-17.665 0-15.472 0-15.595-.679-16.861-1.05-1.977-2.193-3.181-3.922-4.077-1.359-.71-1.946-.834-4.2-.834-2.101 0-2.873.155-3.861.68-1.698.895-3.397 2.717-4.231 4.57-.71 1.513-.71 1.73-.864 16.213-.155 14.67-.155 14.67-1.112 16.708-.556 1.143-1.483 2.625-2.1 3.304-2.409 2.656-6.3 4.386-9.914 4.386-2.44 0-5.528-.927-7.473-2.286-1.977-1.359-3.861-3.736-4.756-5.96-.71-1.76-.741-1.976-.896-16.615-.154-14.762-.154-14.823-.865-16.275-.957-1.945-3.15-3.829-5.095-4.416-1.637-.494-4.478-.587-5.775-.185zm88.324.34c-2.316.401-5.589 1.451-7.967 2.624-3.367 1.606-6.547 3.923-9.173 6.702-4.138 4.293-6.454 8.647-7.936 14.7-.464 2.038-.618 3.675-.618 6.856 0 4.818.494 7.443 2.162 11.426 1.482 3.583 3.304 6.3 6.145 9.265 3.801 3.99 8.599 6.89 13.898 8.4 2.007.587 3.211.68 7.041.71 4.2 0 4.756-.061 5.899-.679 2.038-1.081 3.119-2.162 4.045-4.015.68-1.389.834-2.161.803-3.767 0-1.112-.216-2.564-.494-3.181-.71-1.73-2.81-3.799-4.571-4.571-1.05-.432-2.656-.741-4.817-.926-2.687-.216-3.583-.402-5.22-1.236-1.08-.525-2.594-1.575-3.335-2.347-.772-.772-1.915-2.409-2.532-3.675-.958-1.945-1.143-2.656-1.266-5.003-.124-2.254-.031-3.057.525-4.725.926-2.717 1.914-4.292 3.736-6.022 3.459-3.242 8.771-4.354 13.249-2.779 3.274 1.142 6.115 3.922 7.535 7.35.618 1.544.649 2.223.803 15.503.155 13.897.155 13.897.989 15.441 1.019 1.946 2.161 3.027 4.107 3.922 1.205.556 2.069.71 3.86.68 1.452-.031 2.749-.217 3.49-.556 1.761-.772 3.768-2.78 4.571-4.602.741-1.606.741-1.606.741-15.194 0-9.913-.124-14.175-.401-15.719-.711-3.675-2.131-7.659-3.83-10.531-1.884-3.212-5.806-7.35-8.894-9.419-2.841-1.915-6.98-3.675-10.284-4.355-2.007-.401-4.015-.555-6.856-.555-2.193.03-4.632.154-5.405.277zm134.433.123c-4.293.834-7.69 2.223-11.488 4.756-4.386 2.903-8.277 7.288-10.655 12.044-1.266 2.471-2.563 6.732-2.995 9.604-.495 3.398-.186 8.74.648 11.921 1.421 5.374 5.034 11.272 8.987 14.7 2.44 2.131 4.169 3.305 6.763 4.602 4.602 2.316 8.802 3.211 14.083 3.057 2.995-.124 3.52-.216 4.818-.988 2.717-1.575 4.57-4.571 4.57-7.319 0-2.1-.895-4.324-2.347-5.868-1.853-2.007-3.86-2.81-7.226-2.996-2.842-.123-4.046-.432-6.177-1.513-1.699-.865-4.354-3.521-5.219-5.281-.896-1.822-1.575-4.57-1.575-6.454 0-3.768 2.409-8.431 5.466-10.624 5.281-3.767 11.828-3.551 16.522.587 1.39 1.235 2.965 3.799 3.675 6.053.278.896.433 5.157.556 14.978.186 13.743.186 13.743 1.019 15.194 1.081 1.791 2.718 3.181 4.54 3.799.741.247 2.378.463 3.583.463 1.729 0 2.532-.155 3.798-.803 1.853-.927 3.305-2.44 4.169-4.416.618-1.359.649-1.915.556-15.349-.062-12.106-.123-14.298-.617-16.676-1.174-5.621-3.737-10.562-7.721-14.731-3.922-4.108-8.987-7.01-14.608-8.431-2.717-.68-10.284-.834-13.125-.309zm-182.548 69.3c-.896.34-2.254 1.019-2.996 1.575-2.007 1.452-4.941 2.749-7.535 3.305-3.335.741-7.999.463-11.427-.68-1.389-.463-3.428-1.39-4.447-2.069-2.409-1.544-3.891-2.069-5.898-2.069-3.397 0-6.3 1.791-7.721 4.725-1.081 2.193-1.297 4.046-.71 6.115.741 2.532 2.069 4.045 5.003 5.836 3.212 1.946 5.713 3.089 9.048 4.139 4.262 1.328 7.968 1.822 12.878 1.636 3.274-.123 5.096-.339 7.412-.957 1.699-.432 3.861-1.112 4.787-1.482 4.447-1.73 8.894-4.447 10.593-6.424 1.39-1.637 2.193-4.2 1.976-6.207-.216-1.822-1.05-3.799-2.192-5.127-.463-.556-1.575-1.358-2.471-1.791-2.193-1.081-4.231-1.235-6.3-.525z" fill="#fff"/></svg>